{"title":"Tierische Liebe AKA Animal Love (Ulrich Seidl, 1996)","uid":7319751,"size":1257425703,"categoryP":"video","categoryS":"movies","magnet":"?xt=urn:btih:ae4e36bb97314745c88edcbf1d95347251ad3e11&amp;dn=Tierische+Liebe+AKA+Animal+Love+%28Ulrich+Seidl%2C+1996%29&amp;tr=udp%3A%2F%2Ftracker.openbittorrent.com%3A80&amp;tr=udp%3A%2F%2Fopen.demonii.com%3A1337&amp;tr=udp%3A%2F%2Ftracker.coppersurfer.tk%3A6969&amp;tr=udp%3A%2F%2Fexodus.desync.com%3A6969","seeders":4,"leechers":0,"uploader":"tonioferah","files":3,"time":1338588839,"description":"In conurbations where hundreds of thousands live alongside one another, in the era of a highly technological society, in which communication has never played such a significant role, man has become lonely. Disappointed by his fellow human beings, he turns to animals. Dogs and other domestic animals serve him as companions, life partners, cuddly objects and bedfellows. \n\n\n_______________________________\n\n\nFormat                           : AVI\nFormat/Info                      : Audio Video Interleave\nFile size                        : 1.17 GiB\nDuration                         : 1h 46mn\nOverall bit rate                 : 1 579 Kbps\n\nVideo\nID                               : 0\nFormat                           : MPEG-4 Visual\nFormat profile                   : Advanced Simple@L5\nFormat settings, BVOP            : Yes\nFormat settings, QPel            : No\nFormat settings, GMC             : No warppoints\nFormat settings, Matrix          : Custom\nCodec ID                         : XVID\nCodec ID/Hint                    : XviD\nDuration                         : 1h 46mn\nBit rate                         : 1 460 Kbps\nWidth                            : 704 pixels\nHeight                           : 416 pixels\nDisplay aspect ratio             : 1.692\nFrame rate                       : 25.000 fps\nColor space                      : YUV\nChroma subsampling               : 4:2:0\nBit depth                        : 8 bits\nScan type                        : Progressive\nCompression mode                 : Lossy\nBits/(Pixel*Frame)               : 0.199\nStream size                      : 1.08 GiB (92%)\nWriting library                  : XviD 1.2.1 (UTC 2008-12-04)\n\nAudio\nID                               : 1\nFormat                           : MPEG Audio\nFormat version                   : Version 1\nFormat profile                   : Layer 3\nMode                             : Joint stereo\nMode extension                   : MS Stereo\nCodec ID                         : 55\nCodec ID/Hint                    : MP3\nDuration                         : 1h 46mn\nBit rate mode                    : Variable\nBit rate                         : 106 Kbps\nNominal bit rate                 : 128 Kbps\nChannel(s)                       : 2 channels\nSampling rate                    : 48.0 KHz\nCompression mode                 : Lossy\nStream size                      : 80.3 MiB (7%)\nAlignment                        : Aligned on interleaves\nInterleave, duration             : 24 ms (0.60 video frame)\nInterleave, preload duration     : 174 ms\nWriting library                  : LAME3.98r\nLanguage                         : German","torrent":{"xt":"urn:btih:ae4e36bb97314745c88edcbf1d95347251ad3e11","amp;dn":"Tierische+Liebe+AKA+Animal+Love+%28Ulrich+Seidl%2C+1996%29","amp;tr":["udp%3A%2F%2Ftracker.openbittorrent.com%3A80","udp%3A%2F%2Fopen.demonii.com%3A1337","udp%3A%2F%2Ftracker.coppersurfer.tk%3A6969","udp%3A%2F%2Fexodus.desync.com%3A6969"],"infoHash":"ae4e36bb97314745c88edcbf1d95347251ad3e11","infoHashBuffer":{"type":"Buffer","data":[174,78,54,187,151,49,71,69,200,142,220,191,29,149,52,114,81,173,62,17]},"announce":[],"urlList":[]}}